<?xml version="1.0" encoding="utf-8"?><!-- Uploaded to: SVG Repo, www.svgrepo.com, Generator: SVG Repo Mixer Tools -->
<svg fill="#000000" width="800px" height="800px" viewBox="0 0 24 24" id="car-alert-left" data-name="Line Color" xmlns="http://www.w3.org/2000/svg" class="icon line-color"><line id="secondary-upstroke" x1="10.05" y1="11.5" x2="9.95" y2="11.5" style="fill: none; stroke-linecap: round; stroke-linejoin: round; stroke-width: 2; stroke: rgb(44, 169, 188);"></line><path id="primary" d="M5,18H4a1,1,0,0,1-1-1V13.78a1,1,0,0,1,.76-1L5,12.5" style="fill: none; stroke: rgb(0, 0, 0); stroke-linecap: round; stroke-linejoin: round; stroke-width: 2;"></path><path id="primary-2" data-name="primary" d="M14,8h2.38a1,1,0,0,1,.9.55L19,12l1.45.72a1,1,0,0,1,.55.9V17a1,1,0,0,1-1,1H19" style="fill: none; stroke: rgb(0, 0, 0); stroke-linecap: round; stroke-linejoin: round; stroke-width: 2;"></path><line id="primary-3" data-name="primary" x1="9" y1="18" x2="15" y2="18" style="fill: none; stroke: rgb(0, 0, 0); stroke-linecap: round; stroke-linejoin: round; stroke-width: 2;"></line><path id="secondary" d="M17,20a2,2,0,1,0-2-2A2,2,0,0,0,17,20ZM7,20a2,2,0,1,0-2-2A2,2,0,0,0,7,20ZM10,7V4" style="fill: none; stroke-linecap: round; stroke-linejoin: round; stroke-width: 2; stroke: rgb(44, 169, 188);"></path></svg>